<svg xmlns="http://www.w3.org/2000/svg" version="1.1" xmlns:xlink="http://www.w3.org/1999/xlink" xmlns:svgjs="http://svgjs.dev/svgjs" width="1500" height="590" viewBox="0 0 1500 590"><g transform="matrix(1,0,0,1,-0.9090909090909918,-0.09704160972825093)"><svg viewBox="0 0 396 156" data-background-color="#ffffff" preserveAspectRatio="xMidYMid meet" height="590" width="1500" xmlns="http://www.w3.org/2000/svg" xmlns:xlink="http://www.w3.org/1999/xlink"><g id="tight-bounds" transform="matrix(1,0,0,1,0.2400000000000091,0.025658459521366694)"><svg viewBox="0 0 395.52 155.94868308095727" height="155.94868308095727" width="395.52"><g><svg viewBox="0 0 395.52 155.94868308095727" height="155.94868308095727" width="395.52"><g transform="matrix(1,0,0,1,0,90.93669539400598)"><svg viewBox="0 0 395.52 65.01198768695127" height="65.01198768695127" width="395.52"><g id="textblocktransform"><svg viewBox="0 0 395.52 65.01198768695127" height="65.01198768695127" width="395.52" id="textblock"><g><svg viewBox="0 0 395.52 35.06435965243672" height="35.06435965243672" width="395.52"><g transform="matrix(1,0,0,1,0,0)"><svg width="395.52" viewBox="2.55 -34.55 397.02 35.199999999999996" height="35.06435965243672" data-palette-color="#000000"><path d="M28.5-33L27.6-29.3Q26.35-29.7 24.95-30.03 23.55-30.35 21.88-30.58 20.2-30.8 18.35-30.8L18.35-30.8Q15.35-30.8 13.25-29.5 11.15-28.2 9.83-26.18 8.5-24.15 7.9-21.65 7.3-19.15 7.3-16.7L7.3-16.7Q7.3-13.6 8.18-11.08 9.05-8.55 10.58-6.78 12.1-5 14.13-4.05 16.15-3.1 18.4-3.1L18.4-3.1Q20.5-3.1 22.25-3.33 24-3.55 25.25-3.8L25.25-3.8Q26.7-4.1 27.85-4.5L27.85-4.5 28.7-0.95Q27.35-0.5 25.7-0.15L25.7-0.15Q24.3 0.15 22.45 0.4 20.6 0.65 18.4 0.65L18.4 0.65Q14.45 0.65 11.48-0.65 8.5-1.95 6.53-4.28 4.55-6.6 3.55-9.78 2.55-12.95 2.55-16.75L2.55-16.75Q2.55-21.1 3.75-24.43 4.95-27.75 7.05-30 9.15-32.25 12.05-33.4 14.95-34.55 18.4-34.55L18.4-34.55Q20.5-34.55 22.33-34.33 24.15-34.1 25.68-33.75 27.2-33.4 28.5-33L28.5-33ZM31.95-17.05L31.95-17.05Q31.95-21.9 33.47-25.25 35-28.6 37.37-30.65 39.75-32.7 42.67-33.63 45.6-34.55 48.4-34.55L48.4-34.55Q51.2-34.55 54.12-33.77 57.05-33 59.42-31.03 61.8-29.05 63.32-25.65 64.85-22.25 64.85-17L64.85-17Q64.85-12.1 63.32-8.75 61.8-5.4 59.42-3.3 57.05-1.2 54.12-0.28 51.2 0.65 48.4 0.65L48.4 0.65Q45.6 0.65 42.67-0.25 39.75-1.15 37.37-3.2 35-5.25 33.47-8.65 31.95-12.05 31.95-17.05ZM60.1-16.8L60.1-16.8Q60.1-23.55 56.97-27.05 53.85-30.55 48.6-30.55L48.6-30.55Q45.95-30.55 43.77-29.73 41.6-28.9 40.02-27.25 38.45-25.6 37.57-23.13 36.7-20.65 36.7-17.3L36.7-17.3Q36.7-10.55 39.82-6.95 42.95-3.35 48.2-3.35L48.2-3.35Q50.8-3.35 53-4.17 55.2-5 56.77-6.7 58.35-8.4 59.22-10.9 60.1-13.4 60.1-16.8ZM71.55-34.1L75.75-34.1 75.75-12.8Q75.75-9.95 76.57-8.13 77.4-6.3 78.75-5.25 80.1-4.2 81.82-3.8 83.55-3.4 85.35-3.4L85.35-3.4Q87.15-3.4 88.85-3.8 90.55-4.2 91.9-5.25 93.25-6.3 94.05-8.13 94.85-9.95 94.85-12.8L94.85-12.8 94.85-34.1 99.05-34.1 99.05-11.75Q99.05-9.15 98.07-6.9 97.1-4.65 95.3-2.98 93.5-1.3 90.95-0.35 88.4 0.6 85.3 0.6L85.3 0.6Q78.65 0.6 75.1-2.63 71.55-5.85 71.55-11.75L71.55-11.75 71.55-34.1ZM107.59 0L107.59-34.1 115.99-34.1Q118.74-34.1 121.02-33.63 123.29-33.15 124.89-32.02 126.49-30.9 127.34-29.05 128.19-27.2 128.19-24.4L128.19-24.4Q128.14-21.3 127.14-19.38 126.14-17.45 124.69-16.28 123.24-15.1 121.34-14.55L121.34-14.55 121.34-14.45Q121.54-14.25 121.97-13.73 122.39-13.2 122.69-12.8L122.69-12.8 132.34 0 127.39 0 117.49-13.55 111.79-13.55 111.79 0 107.59 0ZM123.94-23.7L123.94-23.7Q123.94-25.8 123.42-27.13 122.89-28.45 121.87-29.15 120.84-29.85 119.34-30.1 117.84-30.35 115.94-30.35L115.94-30.35 111.79-30.35 111.79-17.3 116.74-17.3Q118.69-17.3 120.04-17.8 121.39-18.3 122.24-19.18 123.09-20.05 123.49-21.2 123.89-22.35 123.94-23.7ZM154.69-33.45L153.99-29.4Q152.79-29.7 151.49-29.95L151.49-29.95Q150.34-30.2 148.87-30.38 147.39-30.55 145.79-30.55L145.79-30.55Q142.09-30.55 140.49-29.43 138.89-28.3 138.89-25.95L138.89-25.95Q138.94-24.1 140.24-22.83 141.54-21.55 143.49-20.48 145.44-19.4 147.77-18.38 150.09-17.35 152.04-16.03 153.99-14.7 155.32-12.93 156.64-11.15 156.64-8.6L156.64-8.6Q156.64-5.65 155.37-3.85 154.09-2.05 152.14-1.05 150.19-0.05 147.87 0.3 145.54 0.65 143.44 0.65L143.44 0.65Q141.44 0.65 139.79 0.4 138.14 0.15 136.94-0.15L136.94-0.15Q135.54-0.5 134.39-0.95L134.39-0.95 135.39-5Q136.54-4.5 137.84-4.15L137.84-4.15Q138.99-3.85 140.42-3.6 141.84-3.35 143.44-3.35L143.44-3.35Q145.39-3.35 147.02-3.6 148.64-3.85 149.84-4.4 151.04-4.95 151.72-5.85 152.39-6.75 152.39-8.05L152.39-8.05Q152.34-10 151.12-11.23 149.89-12.45 147.87-13.58 145.84-14.7 143.52-15.75 141.19-16.8 139.24-18.15 137.29-19.5 135.97-21.35 134.64-23.2 134.64-25.95L134.64-25.95Q134.64-27.55 135.19-29.1 135.74-30.65 137.07-31.85 138.39-33.05 140.52-33.8 142.64-34.55 145.79-34.55L145.79-34.55Q147.59-34.55 149.22-34.38 150.84-34.2 152.04-34L152.04-34Q153.44-33.75 154.69-33.45L154.69-33.45ZM162.84 0L162.84-34.1 183.74-34.1 183.74-30.25 167.04-30.25 167.04-19.35 182.54-19.35 182.54-15.6 167.04-15.6 167.04-3.85 184.24-3.85 184.24 0 162.84 0ZM226.58-33L225.68-29.3Q224.43-29.7 223.03-30.03 221.63-30.35 219.96-30.58 218.28-30.8 216.43-30.8L216.43-30.8Q213.43-30.8 211.33-29.5 209.23-28.2 207.91-26.18 206.58-24.15 205.98-21.65 205.38-19.15 205.38-16.7L205.38-16.7Q205.38-13.6 206.26-11.08 207.13-8.55 208.66-6.78 210.18-5 212.21-4.05 214.23-3.1 216.48-3.1L216.48-3.1Q218.58-3.1 220.33-3.33 222.08-3.55 223.33-3.8L223.33-3.8Q224.78-4.1 225.93-4.5L225.93-4.5 226.78-0.95Q225.43-0.5 223.78-0.15L223.78-0.15Q222.38 0.15 220.53 0.4 218.68 0.65 216.48 0.65L216.48 0.65Q212.53 0.65 209.56-0.65 206.58-1.95 204.61-4.28 202.63-6.6 201.63-9.78 200.63-12.95 200.63-16.75L200.63-16.75Q200.63-21.1 201.83-24.43 203.03-27.75 205.13-30 207.23-32.25 210.13-33.4 213.03-34.55 216.48-34.55L216.48-34.55Q218.58-34.55 220.41-34.33 222.23-34.1 223.76-33.75 225.28-33.4 226.58-33L226.58-33ZM232.83 0L232.83-34.1 241.23-34.1Q243.98-34.1 246.26-33.63 248.53-33.15 250.13-32.02 251.73-30.9 252.58-29.05 253.43-27.2 253.43-24.4L253.43-24.4Q253.38-21.3 252.38-19.38 251.38-17.45 249.93-16.28 248.48-15.1 246.58-14.55L246.58-14.55 246.58-14.45Q246.78-14.25 247.21-13.73 247.63-13.2 247.93-12.8L247.93-12.8 257.58 0 252.63 0 242.73-13.55 237.03-13.55 237.03 0 232.83 0ZM249.18-23.7L249.18-23.7Q249.18-25.8 248.66-27.13 248.13-28.45 247.11-29.15 246.08-29.85 244.58-30.1 243.08-30.35 241.18-30.35L241.18-30.35 237.03-30.35 237.03-17.3 241.98-17.3Q243.93-17.3 245.28-17.8 246.63-18.3 247.48-19.18 248.33-20.05 248.73-21.2 249.13-22.35 249.18-23.7ZM258.33 0L270.03-34.1 275.23-34.1 286.93 0 282.58 0 279.58-9.1 265.73-9.1 262.68 0 258.33 0ZM267.03-13.1L278.23-13.1 272.73-30.1 272.58-30.1 267.03-13.1ZM292.28 0L292.28-34.1 313.18-34.1 313.18-30.25 296.48-30.25 296.48-19.35 311.98-19.35 311.98-15.6 296.48-15.6 296.48 0 292.28 0ZM326.47 0L326.47-30.2 315.77-30.2 315.77-34.1 341.37-34.1 341.37-30.2 330.67-30.2 330.67 0 326.47 0ZM346.62 0L346.62-34.1 367.52-34.1 367.52-30.25 350.82-30.25 350.82-19.35 366.32-19.35 366.32-15.6 350.82-15.6 350.82-3.85 368.02-3.85 368.02 0 346.62 0ZM374.82 0L374.82-34.1 383.22-34.1Q385.97-34.1 388.24-33.63 390.52-33.15 392.12-32.02 393.72-30.9 394.57-29.05 395.42-27.2 395.42-24.4L395.42-24.4Q395.37-21.3 394.37-19.38 393.37-17.45 391.92-16.28 390.47-15.1 388.57-14.55L388.57-14.55 388.57-14.45Q388.77-14.25 389.19-13.73 389.62-13.2 389.92-12.8L389.92-12.8 399.57 0 394.62 0 384.72-13.55 379.02-13.55 379.02 0 374.82 0ZM391.17-23.7L391.17-23.7Q391.17-25.8 390.64-27.13 390.12-28.45 389.09-29.15 388.07-29.85 386.57-30.1 385.07-30.35 383.17-30.35L383.17-30.35 379.02-30.35 379.02-17.3 383.97-17.3Q385.92-17.3 387.27-17.8 388.62-18.3 389.47-19.18 390.32-20.05 390.72-21.2 391.12-22.35 391.17-23.7Z" opacity="1" transform="matrix(1,0,0,1,0,0)" fill="#000000" class="wordmark-text-0" data-fill-palette-color="primary" id="text-0"></path></svg></g></svg></g><g transform="matrix(1,0,0,1,0,43.34221342174537)"><svg viewBox="0 0 395.52 21.669774265205895" height="21.669774265205895" width="395.52"><g transform="matrix(1,0,0,1,0,0)"><svg width="395.52" viewBox="4.4 -34.55 642.48 35.199999999999996" height="21.669774265205895" data-palette-color="#89939e"><path d="M4.4 0L4.4-34.1 25.3-34.1 25.3-30.25 8.6-30.25 8.6-19.35 24.1-19.35 24.1-15.6 8.6-15.6 8.6-3.85 25.8-3.85 25.8 0 4.4 0ZM84.33-30.25L84.33-3.85 91.08-3.85Q93.83-3.85 96.26-4.55 98.68-5.25 100.51-6.83 102.33-8.4 103.38-10.95 104.43-13.5 104.43-17.15L104.43-17.15Q104.43-20.55 103.48-23.03 102.53-25.5 100.81-27.1 99.08-28.7 96.61-29.48 94.13-30.25 91.08-30.25L91.08-30.25 84.33-30.25ZM80.13 0L80.13-34.1 91.08-34.1Q95.13-34.1 98.41-33.1 101.68-32.1 104.03-30 106.38-27.9 107.66-24.7 108.93-21.5 108.93-17.15L108.93-17.15Q108.93-12.75 107.53-9.53 106.13-6.3 103.73-4.17 101.33-2.05 98.08-1.03 94.83 0 91.08 0L91.08 0 80.13 0ZM163.17-34.1L167.37-34.1 167.37-12.8Q167.37-9.95 168.19-8.13 169.02-6.3 170.37-5.25 171.72-4.2 173.44-3.8 175.17-3.4 176.97-3.4L176.97-3.4Q178.77-3.4 180.47-3.8 182.17-4.2 183.52-5.25 184.87-6.3 185.67-8.13 186.47-9.95 186.47-12.8L186.47-12.8 186.47-34.1 190.67-34.1 190.67-11.75Q190.67-9.15 189.69-6.9 188.72-4.65 186.92-2.98 185.12-1.3 182.57-0.35 180.02 0.6 176.92 0.6L176.92 0.6Q170.27 0.6 166.72-2.63 163.17-5.85 163.17-11.75L163.17-11.75 163.17-34.1ZM270.85-33L269.95-29.3Q268.7-29.7 267.3-30.03 265.9-30.35 264.23-30.58 262.55-30.8 260.7-30.8L260.7-30.8Q257.7-30.8 255.6-29.5 253.5-28.2 252.18-26.18 250.85-24.15 250.25-21.65 249.65-19.15 249.65-16.7L249.65-16.7Q249.65-13.6 250.53-11.08 251.4-8.55 252.93-6.78 254.45-5 256.48-4.05 258.5-3.1 260.75-3.1L260.75-3.1Q262.85-3.1 264.6-3.33 266.35-3.55 267.6-3.8L267.6-3.8Q269.05-4.1 270.2-4.5L270.2-4.5 271.05-0.95Q269.7-0.5 268.05-0.15L268.05-0.15Q266.65 0.15 264.8 0.4 262.95 0.65 260.75 0.65L260.75 0.65Q256.8 0.65 253.83-0.65 250.85-1.95 248.88-4.28 246.9-6.6 245.9-9.78 244.9-12.95 244.9-16.75L244.9-16.75Q244.9-21.1 246.1-24.43 247.3-27.75 249.4-30 251.5-32.25 254.4-33.4 257.3-34.55 260.75-34.55L260.75-34.55Q262.85-34.55 264.68-34.33 266.5-34.1 268.03-33.75 269.55-33.4 270.85-33L270.85-33ZM321.19 0L332.89-34.1 338.09-34.1 349.79 0 345.44 0 342.44-9.1 328.59-9.1 325.54 0 321.19 0ZM329.89-13.1L341.09-13.1 335.59-30.1 335.44-30.1 329.89-13.1ZM407.42 0L407.42-30.2 396.72-30.2 396.72-34.1 422.32-34.1 422.32-30.2 411.62-30.2 411.62 0 407.42 0ZM475.11 0L475.11-34.1 479.31-34.1 479.31 0 475.11 0ZM533.79-17.05L533.79-17.05Q533.79-21.9 535.32-25.25 536.84-28.6 539.22-30.65 541.59-32.7 544.52-33.63 547.44-34.55 550.24-34.55L550.24-34.55Q553.04-34.55 555.97-33.77 558.89-33 561.27-31.03 563.64-29.05 565.17-25.65 566.69-22.25 566.69-17L566.69-17Q566.69-12.1 565.17-8.75 563.64-5.4 561.27-3.3 558.89-1.2 555.97-0.28 553.04 0.65 550.24 0.65L550.24 0.65Q547.44 0.65 544.52-0.25 541.59-1.15 539.22-3.2 536.84-5.25 535.32-8.65 533.79-12.05 533.79-17.05ZM561.94-16.8L561.94-16.8Q561.94-23.55 558.82-27.05 555.69-30.55 550.44-30.55L550.44-30.55Q547.79-30.55 545.62-29.73 543.44-28.9 541.87-27.25 540.29-25.6 539.42-23.13 538.54-20.65 538.54-17.3L538.54-17.3Q538.54-10.55 541.67-6.95 544.79-3.35 550.04-3.35L550.04-3.35Q552.64-3.35 554.84-4.17 557.04-5 558.62-6.7 560.19-8.4 561.07-10.9 561.94-13.4 561.94-16.8ZM621.18 0L621.18-34.1 625.18-34.1 643.08-7.05 643.18-7.05Q643.08-8.5 643.03-10.15L643.03-10.15Q642.93-11.55 642.9-13.38 642.88-15.2 642.88-17.1L642.88-17.1 642.88-34.1 646.88-34.1 646.88 0 642.88 0 624.98-27.15 624.88-27.15Q624.93-25.65 625.03-24L625.03-24Q625.08-22.55 625.13-20.75 625.18-18.95 625.18-17.05L625.18-17.05 625.18 0 621.18 0Z" opacity="1" transform="matrix(1,0,0,1,0,0)" fill="#89939e" class="slogan-text-1" data-fill-palette-color="secondary" id="text-1"></path></svg></g></svg></g></svg></g></svg></g><g transform="matrix(1,0,0,1,156.43057918765135,0)"><svg viewBox="0 0 82.65884162469732 82.65884162469733" height="82.65884162469733" width="82.65884162469732"><g><svg></svg></g><g id="icon-0"><svg viewBox="0 0 82.65884162469732 82.65884162469733" height="82.65884162469733" width="82.65884162469732"><g><path transform="scale(0.82659,0.82659)" d="M30 100c-16.569 0-30-13.431-30-30v-40c0-16.569 13.431-30 30-30h40c16.569 0 30 13.431 30 30v40c0 16.569-13.431 30-30 30z" fill="#000000" fill-rule="nonzero" stroke="none" stroke-width="1" stroke-linecap="butt" stroke-linejoin="miter" stroke-miterlimit="10" stroke-dasharray="" stroke-dashoffset="0" font-family="none" font-weight="none" font-size="none" text-anchor="none" style="mix-blend-mode: normal" data-fill-palette-color="accent"></path></g><g transform="matrix(1,0,0,1,16.53179335000443,16.531768324939467)"><svg viewBox="0 0 49.595254924688454 49.5953049748184" height="49.5953049748184" width="49.595254924688454"><g><svg xmlns="http://www.w3.org/2000/svg" data-name="Layer 1" viewBox="2 2 60 60.00006055030469" x="0" y="0" height="49.5953049748184" width="49.595254924688454" class="icon-cg-0" data-fill-palette-color="quaternary" id="cg-0"><rect x="22" y="9" width="6" height="2" fill="#ffffff" data-fill-palette-color="quaternary"></rect><rect x="18" y="15" width="10" height="2" fill="#ffffff" data-fill-palette-color="quaternary"></rect><rect x="18" y="21" width="10" height="2" fill="#ffffff" data-fill-palette-color="quaternary"></rect><rect x="40" y="9" width="6" height="2" fill="#ffffff" data-fill-palette-color="quaternary"></rect><rect x="36" y="15" width="10" height="2" fill="#ffffff" data-fill-palette-color="quaternary"></rect><rect x="36" y="21" width="10" height="2" fill="#ffffff" data-fill-palette-color="quaternary"></rect><path d="M61 6H57.638A13.821 13.821 0 0 0 48 2a13.3 13.3 0 0 0-3.489 0.478A13.555 13.555 0 0 0 32 5.431 13.555 13.555 0 0 0 19.489 2.478 13.3 13.3 0 0 0 16 2 13.821 13.821 0 0 0 6.362 6H3A1 1 0 0 0 2 7V31a1 1 0 0 0 1 1H14.694a19.874 19.874 0 0 0 1.311 21.956c0 0.015 0 0.029 0 0.044h0.038a19.924 19.924 0 0 0 31.924 0H48c0-0.015-0.005-0.029-0.005-0.044A19.874 19.874 0 0 0 49.306 32H61a1 1 0 0 0 1-1V7A1 1 0 0 0 61 6ZM38.973 41c-0.025-1.588-0.109-3.13-0.251-4.616 4.045-0.782 7.064-2.244 8.437-4.056A17.746 17.746 0 0 1 49.962 41ZM32 60c-1.584 0-3.638-3.946-4.54-10.715a36.3 36.3 0 0 1 9.08 0C35.638 56.054 33.584 60 32 60Zm0-13a37.8 37.8 0 0 0-4.76 0.293c-0.123-1.341-0.2-2.775-0.224-4.293h9.968c-0.025 1.518-0.1 2.952-0.224 4.293A37.8 37.8 0 0 0 32 47ZM14.038 41a17.746 17.746 0 0 1 2.8-8.672c1.373 1.812 4.392 3.273 8.437 4.056-0.142 1.485-0.226 3.027-0.251 4.616ZM13 30H9.869A11.671 11.671 0 0 1 13 28.635Zm16.1 0H16.905A11.5 11.5 0 0 1 29.1 30Zm9.4 4.389Q38.326 33.162 38.1 32h6.577A15.732 15.732 0 0 1 38.495 34.389ZM36.066 32q0.261 1.3 0.452 2.687a35.674 35.674 0 0 1-9.036 0q0.191-1.389 0.452-2.687ZM19.321 32H25.9q-0.224 1.162-0.393 2.389A15.763 15.763 0 0 1 19.321 32Zm7.706 9q0.036-2.223 0.231-4.3A37.215 37.215 0 0 0 32 37a37.227 37.227 0 0 0 4.742-0.3q0.2 2.079 0.231 4.305Zm7.878-11A11.5 11.5 0 0 1 47.1 30ZM51 28.635A11.671 11.671 0 0 1 54.131 30H51ZM56 7.2V28.846a13.712 13.712 0 0 0-5-2.256V6.769a1 1 0 0 0-0.3-0.715 14.608 14.608 0 0 0-2.622-2.03A11.866 11.866 0 0 1 56 7.2Zm-7 0V28.851a13.5 13.5 0 0 0-16 0V7.2A11.629 11.629 0 0 1 49 7.2Zm-18 0V28.851a13.5 13.5 0 0 0-16 0V7.2A11.629 11.629 0 0 1 31 7.2ZM8 7.2a11.858 11.858 0 0 1 7.922-3.173A14.6 14.6 0 0 0 13.3 6.054a1 1 0 0 0-0.3 0.715V26.59a13.712 13.712 0 0 0-5 2.256ZM4 8H6V30H4ZM14.051 43H25.009c0.027 1.546 0.116 3.1 0.264 4.61-4 0.771-7.033 2.225-8.424 4.07A17.866 17.866 0 0 1 14.051 43Zm4.064 10.443c0.554-1.506 3.287-3.025 7.393-3.838 0.567 4.13 1.6 7.805 3.077 10.06A18.011 18.011 0 0 1 18.115 53.443Zm17.3 6.222c1.474-2.255 2.51-5.93 3.077-10.06 4.106 0.813 6.839 2.332 7.393 3.838A18.011 18.011 0 0 1 35.415 59.665ZM38.727 47.61c0.148-1.514 0.237-3.064 0.264-4.61H49.949a17.866 17.866 0 0 1-2.8 8.68C45.76 49.835 42.73 48.381 38.727 47.61ZM60 30H58V8h2Z" fill="#ffffff" data-fill-palette-color="quaternary"></path></svg></g></svg></g></svg></g></svg></g><g></g></svg></g><defs></defs></svg><rect width="395.52" height="155.94868308095727" fill="none" stroke="none" visibility="hidden"></rect></g></svg></g></svg>